<svg width="64" height="64" viewBox="0 0 64 64" fill="none" xmlns="http://www.w3.org/2000/svg">
<rect width="64" height="64" rx="3" fill="#0C0D0D"/>
<path fill-rule="evenodd" clip-rule="evenodd" d="M53.7346 19.5683C53.7346 16.8372 50.6351 15.0202 48.2658 16.3858L31.5663 26.0504C30.5962 26.6663 29.9491 27.8317 29.9045 28.8566V56.1673C29.9045 58.1777 32.0602 59.5817 34.0454 58.5624L43.0607 53.312C44.3507 52.4754 44.8137 51.3502 44.8137 50.265C44.8137 50.265 44.8258 48.6167 44.8137 48.1095C44.707 43.4303 45.6149 40.9382 49.4718 38.7067C50.125 38.3288 51.1069 37.759 51.8494 37.331C52.5924 36.9027 53.7346 35.8859 53.7346 33.9404V19.5683Z" fill="white"/>
<path fill-rule="evenodd" clip-rule="evenodd" d="M25.1897 29.1119C25.1897 27.6644 24.2903 26.5353 23.4276 26.036C23.418 26.0304 23.4174 26.0309 14.5174 20.8816C12.3403 19.6216 10.2659 21.4824 10.2659 23.5761V44.0001C10.2659 45.4494 11.202 46.588 11.9157 47.0009C12.3115 47.2306 11.8304 46.952 21.0359 52.2778C22.7116 53.2473 25.1897 52.0319 25.1897 49.5702C25.1897 28.691 25.1897 29.5327 25.1897 29.1119Z" fill="white"/>
<path fill-rule="evenodd" clip-rule="evenodd" d="M32.0435 5.65778C30.9115 4.97696 29.5689 4.88897 28.4182 5.5382L17.6086 11.8421C15.8465 12.862 15.1221 15.7866 17.0751 16.9164C22.3186 19.9505 24.2445 21.0656 25.5494 21.8204C26.735 22.5062 28.2144 22.5446 29.4 21.8587C32.8894 19.8399 25.8943 23.8487 40.2735 15.5293C42.0655 14.4921 42.46 11.6859 40.5036 10.5538C35.4449 7.62633 33.3749 6.45874 32.0435 5.65778Z" fill="white"/>
</svg>
