<svg clip-rule="evenodd" fill-rule="evenodd" stroke-linejoin="round" stroke-miterlimit="2" viewBox="0 0 100 100" xmlns="http://www.w3.org/2000/svg"><path d="m0 0h100v100h-100z" fill="none"/><path d="m88.351 28.043c0-4.842-5.354-8.071-9.55-5.65l-29.577 17.134c-1.718 1.092-2.864 3.158-2.943 4.975v48.418c0 3.565 3.818 6.054 7.334 4.247l15.967-9.309c2.285-1.483 3.105-3.478 3.105-5.402 0 0 .021-2.922 0-3.821-.189-8.296 1.419-12.714 8.25-16.67 1.157-.67 2.896-1.68 4.211-2.439 1.316-.759 3.339-2.562 3.339-6.011z" fill="#8cecff"/><g fill="#c2f5ff"><path d="m37.945 44.942c0-2.566-1.593-4.568-3.121-5.453-.017-.01-.018-.009-15.781-9.138-3.856-2.234-7.53 1.065-7.53 4.777v36.209c0 2.569 1.658 4.588 2.922 5.32.701.407-.151-.087 16.153 9.355 2.968 1.719 7.357-.436 7.357-4.8 0-37.016 0-35.524 0-36.27z"/><path d="m50.086 3.383c-2.005-1.207-4.383-1.363-6.421-.212l-19.145 11.176c-3.121 1.808-4.404 6.993-.945 8.996 9.287 5.379 12.698 7.356 15.009 8.694 2.1 1.216 4.72 1.284 6.82.068 6.18-3.579-6.209 3.528 19.258-11.221 3.174-1.839 3.873-6.814.408-8.821-8.96-5.19-12.626-7.26-14.984-8.68z"/></g></svg>