<svg width="188" height="232" viewBox="0 0 188 232" fill="none" xmlns="http://www.w3.org/2000/svg">
<path fill-rule="evenodd" clip-rule="evenodd" d="M187.356 62.363C187.356 50.5905 173.994 42.7582 163.78 48.6447L91.7886 90.3039C87.6067 92.9588 84.8172 97.9822 84.625 102.4V220.123C84.625 228.789 93.9181 234.841 102.476 230.447L141.341 207.815C146.902 204.209 148.898 199.359 148.898 194.681C148.898 194.681 148.95 187.576 148.898 185.39C148.438 165.22 152.352 154.478 168.979 144.859C171.795 143.23 176.028 140.774 179.229 138.929C182.432 137.083 187.356 132.7 187.356 124.314V62.363Z" fill="white"/>
<path fill-rule="evenodd" clip-rule="evenodd" d="M64.3364 103.468C64.3364 97.2289 60.4591 92.3616 56.7398 90.2095C56.6984 90.1854 56.6959 90.1875 18.3283 67.9915C8.94268 62.5601 0 70.581 0 79.6062V167.644C0 173.891 4.03564 178.799 7.11227 180.579C8.81852 181.569 6.74474 180.368 46.4294 203.325C53.6534 207.504 64.3364 202.265 64.3364 191.654C64.3364 101.654 64.3364 105.282 64.3364 103.468Z" fill="white"/>
<path fill-rule="evenodd" clip-rule="evenodd" d="M93.8886 2.42073C89.0084 -0.513949 83.2204 -0.893243 78.2599 1.90528L31.66 29.0784C24.0635 33.4744 20.9406 46.0811 29.3599 50.951C51.9647 64.0295 60.2672 68.8361 65.8926 72.0896C71.0038 75.0461 77.3812 75.2115 82.4925 72.2549C97.5352 63.5528 67.3796 80.8326 129.368 44.9721C137.093 40.501 138.794 28.4048 130.36 23.525C108.552 10.9062 99.6281 5.87327 93.8886 2.42073Z" fill="white"/>
</svg>
